<svg width="860" height="220" xmlns="http://www.w3.org/2000/svg">
  <defs>
    <linearGradient id="bg" x1="0%" y1="0%" x2="100%" y2="100%">
      <stop offset="0%" style="stop-color:#0f1117"/>
      <stop offset="100%" style="stop-color:#1a1b2e"/>
    </linearGradient>
    <filter id="glow">
      <feGaussianBlur stdDeviation="3" result="coloredBlur"/>
      <feMerge><feMergeNode in="coloredBlur"/><feMergeNode in="SourceGraphic"/></feMerge>
    </filter>
  </defs>

  <!-- Background -->
  <rect width="860" height="220" rx="14" fill="url(#bg)"/>
  <rect width="858" height="218" x="1" y="1" rx="13" fill="none" stroke="#29adff" stroke-width="1.5" stroke-opacity="0.35"/>

  <!-- Pixel art canvas (left) — 16×12 grid, cell=11px -->
  <!-- Background of canvas area -->
  <rect x="20" y="20" width="178" height="134" rx="6" fill="#1e1f2e" stroke="#29adff" stroke-width="1" stroke-opacity="0.3"/>

  <!-- Pixel art: simple sun + sky + grass, col×row, 16×12 -->
  <!-- Sky rows 0-7: N=#1d2b53  Sun: Y=#ffec27 O=#ffa300  Ground rows 8-11: G=#008751 -->

  <!-- Row 0 (y=21) -->
  <rect x="21" y="21" width="11" height="11" fill="#1d2b53"/><rect x="32" y="21" width="11" height="11" fill="#1d2b53"/><rect x="43" y="21" width="11" height="11" fill="#1d2b53"/><rect x="54" y="21" width="11" height="11" fill="#1d2b53"/><rect x="65" y="21" width="11" height="11" fill="#1d2b53"/><rect x="76" y="21" width="11" height="11" fill="#1d2b53"/><rect x="87" y="21" width="11" height="11" fill="#1d2b53"/><rect x="98" y="21" width="11" height="11" fill="#ffec27"/><rect x="109" y="21" width="11" height="11" fill="#1d2b53"/><rect x="120" y="21" width="11" height="11" fill="#1d2b53"/><rect x="131" y="21" width="11" height="11" fill="#1d2b53"/><rect x="142" y="21" width="11" height="11" fill="#1d2b53"/><rect x="153" y="21" width="11" height="11" fill="#1d2b53"/><rect x="164" y="21" width="11" height="11" fill="#1d2b53"/><rect x="175" y="21" width="11" height="11" fill="#1d2b53"/><rect x="186" y="21" width="11" height="11" fill="#1d2b53"/>
  <!-- Row 1 -->
  <rect x="21" y="32" width="11" height="11" fill="#1d2b53"/><rect x="32" y="32" width="11" height="11" fill="#1d2b53"/><rect x="43" y="32" width="11" height="11" fill="#1d2b53"/><rect x="54" y="32" width="11" height="11" fill="#ffec27"/><rect x="65" y="32" width="11" height="11" fill="#1d2b53"/><rect x="76" y="32" width="11" height="11" fill="#ffa300"/><rect x="87" y="32" width="11" height="11" fill="#ffa300"/><rect x="98" y="32" width="11" height="11" fill="#ffa300"/><rect x="109" y="32" width="11" height="11" fill="#1d2b53"/><rect x="120" y="32" width="11" height="11" fill="#ffec27"/><rect x="131" y="32" width="11" height="11" fill="#1d2b53"/><rect x="142" y="32" width="11" height="11" fill="#1d2b53"/><rect x="153" y="32" width="11" height="11" fill="#1d2b53"/><rect x="164" y="32" width="11" height="11" fill="#1d2b53"/><rect x="175" y="32" width="11" height="11" fill="#1d2b53"/><rect x="186" y="32" width="11" height="11" fill="#1d2b53"/>
  <!-- Row 2 -->
  <rect x="21" y="43" width="11" height="11" fill="#1d2b53"/><rect x="32" y="43" width="11" height="11" fill="#1d2b53"/><rect x="43" y="43" width="11" height="11" fill="#1d2b53"/><rect x="54" y="43" width="11" height="11" fill="#1d2b53"/><rect x="65" y="43" width="11" height="11" fill="#ffa300"/><rect x="76" y="43" width="11" height="11" fill="#ffec27"/><rect x="87" y="43" width="11" height="11" fill="#ffec27"/><rect x="98" y="43" width="11" height="11" fill="#ffec27"/><rect x="109" y="43" width="11" height="11" fill="#ffa300"/><rect x="120" y="43" width="11" height="11" fill="#1d2b53"/><rect x="131" y="43" width="11" height="11" fill="#1d2b53"/><rect x="142" y="43" width="11" height="11" fill="#1d2b53"/><rect x="153" y="43" width="11" height="11" fill="#1d2b53"/><rect x="164" y="43" width="11" height="11" fill="#1d2b53"/><rect x="175" y="43" width="11" height="11" fill="#1d2b53"/><rect x="186" y="43" width="11" height="11" fill="#1d2b53"/>
  <!-- Row 3 -->
  <rect x="21" y="54" width="11" height="11" fill="#1d2b53"/><rect x="32" y="54" width="11" height="11" fill="#ffec27"/><rect x="43" y="54" width="11" height="11" fill="#1d2b53"/><rect x="54" y="54" width="11" height="11" fill="#ffa300"/><rect x="65" y="54" width="11" height="11" fill="#ffec27"/><rect x="76" y="54" width="11" height="11" fill="#ffec27"/><rect x="87" y="54" width="11" height="11" fill="#fff1e8"/><rect x="98" y="54" width="11" height="11" fill="#ffec27"/><rect x="109" y="54" width="11" height="11" fill="#ffec27"/><rect x="120" y="54" width="11" height="11" fill="#ffa300"/><rect x="131" y="54" width="11" height="11" fill="#1d2b53"/><rect x="142" y="54" width="11" height="11" fill="#ffec27"/><rect x="153" y="54" width="11" height="11" fill="#1d2b53"/><rect x="164" y="54" width="11" height="11" fill="#1d2b53"/><rect x="175" y="54" width="11" height="11" fill="#1d2b53"/><rect x="186" y="54" width="11" height="11" fill="#1d2b53"/>
  <!-- Row 4 -->
  <rect x="21" y="65" width="11" height="11" fill="#1d2b53"/><rect x="32" y="65" width="11" height="11" fill="#1d2b53"/><rect x="43" y="65" width="11" height="11" fill="#ffa300"/><rect x="54" y="65" width="11" height="11" fill="#ffec27"/><rect x="65" y="65" width="11" height="11" fill="#fff1e8"/><rect x="76" y="65" width="11" height="11" fill="#ffec27"/><rect x="87" y="65" width="11" height="11" fill="#ffec27"/><rect x="98" y="65" width="11" height="11" fill="#fff1e8"/><rect x="109" y="65" width="11" height="11" fill="#ffec27"/><rect x="120" y="65" width="11" height="11" fill="#ffa300"/><rect x="131" y="65" width="11" height="11" fill="#1d2b53"/><rect x="142" y="65" width="11" height="11" fill="#1d2b53"/><rect x="153" y="65" width="11" height="11" fill="#1d2b53"/><rect x="164" y="65" width="11" height="11" fill="#1d2b53"/><rect x="175" y="65" width="11" height="11" fill="#1d2b53"/><rect x="186" y="65" width="11" height="11" fill="#ffec27"/>
  <!-- Row 5 -->
  <rect x="21" y="76" width="11" height="11" fill="#1d2b53"/><rect x="32" y="76" width="11" height="11" fill="#1d2b53"/><rect x="43" y="76" width="11" height="11" fill="#ffa300"/><rect x="54" y="76" width="11" height="11" fill="#ffec27"/><rect x="65" y="76" width="11" height="11" fill="#ffec27"/><rect x="76" y="76" width="11" height="11" fill="#fff1e8"/><rect x="87" y="76" width="11" height="11" fill="#ffec27"/><rect x="98" y="76" width="11" height="11" fill="#fff1e8"/><rect x="109" y="76" width="11" height="11" fill="#ffec27"/><rect x="120" y="76" width="11" height="11" fill="#ffa300"/><rect x="131" y="76" width="11" height="11" fill="#1d2b53"/><rect x="142" y="76" width="11" height="11" fill="#1d2b53"/><rect x="153" y="76" width="11" height="11" fill="#1d2b53"/><rect x="164" y="76" width="11" height="11" fill="#1d2b53"/><rect x="175" y="76" width="11" height="11" fill="#1d2b53"/><rect x="186" y="76" width="11" height="11" fill="#1d2b53"/>
  <!-- Row 6 -->
  <rect x="21" y="87" width="11" height="11" fill="#1d2b53"/><rect x="32" y="87" width="11" height="11" fill="#ffec27"/><rect x="43" y="87" width="11" height="11" fill="#1d2b53"/><rect x="54" y="87" width="11" height="11" fill="#ffa300"/><rect x="65" y="87" width="11" height="11" fill="#ffec27"/><rect x="76" y="87" width="11" height="11" fill="#ffec27"/><rect x="87" y="87" width="11" height="11" fill="#ffec27"/><rect x="98" y="87" width="11" height="11" fill="#ffec27"/><rect x="109" y="87" width="11" height="11" fill="#ffec27"/><rect x="120" y="87" width="11" height="11" fill="#ffa300"/><rect x="131" y="87" width="11" height="11" fill="#1d2b53"/><rect x="142" y="87" width="11" height="11" fill="#ffec27"/><rect x="153" y="87" width="11" height="11" fill="#1d2b53"/><rect x="164" y="87" width="11" height="11" fill="#1d2b53"/><rect x="175" y="87" width="11" height="11" fill="#1d2b53"/><rect x="186" y="87" width="11" height="11" fill="#1d2b53"/>
  <!-- Row 7 -->
  <rect x="21" y="98" width="11" height="11" fill="#1d2b53"/><rect x="32" y="98" width="11" height="11" fill="#1d2b53"/><rect x="43" y="98" width="11" height="11" fill="#1d2b53"/><rect x="54" y="98" width="11" height="11" fill="#1d2b53"/><rect x="65" y="98" width="11" height="11" fill="#ffa300"/><rect x="76" y="98" width="11" height="11" fill="#ffa300"/><rect x="87" y="98" width="11" height="11" fill="#ffa300"/><rect x="98" y="98" width="11" height="11" fill="#ffa300"/><rect x="109" y="98" width="11" height="11" fill="#ffa300"/><rect x="120" y="98" width="11" height="11" fill="#1d2b53"/><rect x="131" y="98" width="11" height="11" fill="#1d2b53"/><rect x="142" y="98" width="11" height="11" fill="#1d2b53"/><rect x="153" y="98" width="11" height="11" fill="#1d2b53"/><rect x="164" y="98" width="11" height="11" fill="#1d2b53"/><rect x="175" y="98" width="11" height="11" fill="#1d2b53"/><rect x="186" y="98" width="11" height="11" fill="#1d2b53"/>
  <!-- Row 8-11: Ground (G=#008751) with some variation -->
  <rect x="21" y="109" width="176" height="11" fill="#008751"/>
  <rect x="21" y="120" width="176" height="11" fill="#008751"/>
  <rect x="21" y="131" width="176" height="11" fill="#00e436" fill-opacity="0.5"/>
  <rect x="21" y="142" width="176" height="11" fill="#008751"/>

  <!-- Canvas label -->
  <text x="109" y="168" font-family="'Courier New',monospace" font-size="10" fill="#5f574f" text-anchor="middle">16 × 12</text>

  <!-- Divider -->
  <line x1="210" y1="20" x2="210" y2="200" stroke="#29adff" stroke-width="1" stroke-opacity="0.15"/>

  <!-- Right side: Title + info -->
  <text x="230" y="58" font-family="'Courier New',monospace" font-size="38" font-weight="bold" fill="#fff1e8" filter="url(#glow)">AI Painter</text>
  <text x="232" y="80" font-family="'Courier New',monospace" font-size="13" fill="#83769c">Pixel art canvas · Groq + Llama 3.3-70b · Pico-8 palette</text>

  <!-- Tags -->
  <rect x="232" y="94" width="68" height="20" rx="4" fill="#29adff" fill-opacity="0.12" stroke="#29adff" stroke-width="1" stroke-opacity="0.5"/>
  <text x="266" y="108" font-family="'Courier New',monospace" font-size="11" fill="#29adff" text-anchor="middle">React 19</text>

  <rect x="308" y="94" width="82" height="20" rx="4" fill="#29adff" fill-opacity="0.12" stroke="#29adff" stroke-width="1" stroke-opacity="0.5"/>
  <text x="349" y="108" font-family="'Courier New',monospace" font-size="11" fill="#29adff" text-anchor="middle">TypeScript</text>

  <rect x="398" y="94" width="44" height="20" rx="4" fill="#ff77a8" fill-opacity="0.12" stroke="#ff77a8" stroke-width="1" stroke-opacity="0.5"/>
  <text x="420" y="108" font-family="'Courier New',monospace" font-size="11" fill="#ff77a8" text-anchor="middle">Groq</text>

  <rect x="450" y="94" width="50" height="20" rx="4" fill="#00e436" fill-opacity="0.12" stroke="#00e436" stroke-width="1" stroke-opacity="0.5"/>
  <text x="475" y="108" font-family="'Courier New',monospace" font-size="11" fill="#00e436" text-anchor="middle">Vitest</text>

  <rect x="508" y="94" width="40" height="20" rx="4" fill="#ffa300" fill-opacity="0.12" stroke="#ffa300" stroke-width="1" stroke-opacity="0.5"/>
  <text x="528" y="108" font-family="'Courier New',monospace" font-size="11" fill="#ffa300" text-anchor="middle">Vite</text>

  <!-- Features list -->
  <text x="232" y="138" font-family="'Courier New',monospace" font-size="12" fill="#c2c3c7">▸ Generate pixel art from a text prompt</text>
  <text x="232" y="156" font-family="'Courier New',monospace" font-size="12" fill="#c2c3c7">▸ Edit existing canvas with natural language</text>
  <text x="232" y="174" font-family="'Courier New',monospace" font-size="12" fill="#c2c3c7">▸ Manual painting with drag support</text>
  <text x="232" y="192" font-family="'Courier New',monospace" font-size="12" fill="#c2c3c7">▸ 16-color Pico-8 palette · 16×16 to 64×64</text>

  <!-- Palette dots row (decorative) -->
  <circle cx="700" cy="30" r="8" fill="#000000"/>
  <circle cx="718" cy="30" r="8" fill="#1d2b53"/>
  <circle cx="736" cy="30" r="8" fill="#7e2553"/>
  <circle cx="754" cy="30" r="8" fill="#008751"/>
  <circle cx="772" cy="30" r="8" fill="#ab5236"/>
  <circle cx="790" cy="30" r="8" fill="#5f574f"/>
  <circle cx="808" cy="30" r="8" fill="#c2c3c7"/>
  <circle cx="826" cy="30" r="8" fill="#fff1e8"/>
  <circle cx="700" cy="48" r="8" fill="#ff004d"/>
  <circle cx="718" cy="48" r="8" fill="#ffa300"/>
  <circle cx="736" cy="48" r="8" fill="#ffec27"/>
  <circle cx="754" cy="48" r="8" fill="#00e436"/>
  <circle cx="772" cy="48" r="8" fill="#29adff"/>
  <circle cx="790" cy="48" r="8" fill="#83769c"/>
  <circle cx="808" cy="48" r="8" fill="#ff77a8"/>
  <circle cx="826" cy="48" r="8" fill="#ffccaa"/>
  <text x="763" y="70" font-family="'Courier New',monospace" font-size="10" fill="#5f574f" text-anchor="middle">Pico-8 palette</text>
</svg>
